<?xml version="1.0" standalone="no"?>
<!DOCTYPE svg PUBLIC "-//W3C//DTD SVG 20010904//EN"
 "http://www.w3.org/TR/2001/REC-SVG-20010904/DTD/svg10.dtd">
<svg version="1.0" xmlns="http://www.w3.org/2000/svg"
 width="48.000000pt" height="48.000000pt" viewBox="0 0 48.000000 48.000000"
 preserveAspectRatio="xMidYMid meet">

<g transform="translate(0.000000,48.000000) scale(0.100000,-0.100000)"
fill="#000000" stroke="none">
<path d="M283 465 c-18 -8 -33 -10 -33 -5 0 6 -7 10 -15 10 -11 0 -15 -11 -15
-35 0 -32 -2 -35 -19 -25 -29 15 -81 13 -81 -4 0 -19 57 -66 81 -66 24 0 24
-12 -1 -35 -11 -10 -22 -26 -26 -37 -4 -15 -12 -18 -29 -14 -21 5 -25 1 -34
-31 -22 -79 -6 -140 48 -186 45 -38 107 -38 152 0 54 46 70 107 48 186 -9 32
-13 36 -34 31 -17 -4 -25 -1 -29 14 -4 11 -15 27 -26 37 -12 11 -20 31 -20 51
0 28 4 33 29 39 36 8 76 49 68 69 -8 19 -22 20 -64 1z m37 -25 c-13 -24 -26
-26 -33 -6 -6 15 6 24 31 25 10 1 10 -4 2 -19z m-140 -40 c5 0 8 -9 7 -20 -1
-17 -4 -18 -21 -6 -26 17 -35 42 -12 33 10 -4 21 -7 26 -7z m94 -134 c15 -32
14 -36 -11 -94 l-28 -62 -27 61 c-27 59 -27 63 -12 95 22 46 56 46 78 0z
m-101 -61 c40 -55 63 -175 34 -175 -42 0 -87 69 -87 134 0 68 21 84 53 41z
m171 9 c20 -53 -3 -138 -46 -168 -35 -25 -48 -20 -48 18 0 87 73 204 94 150z"/>
</g>
</svg>
